<svg width="50" height="45" viewBox="0 0 50 45" fill="none" xmlns="http://www.w3.org/2000/svg">
<path d="M0.518878 44.7372C0.698032 44.7838 0.888367 44.758 1.04863 44.6653C1.20888 44.5726 1.32615 44.4205 1.37501 44.2419C2.81589 38.8659 8.67173 37.4726 12.1718 36.6389C13.0489 36.4304 13.7414 36.2654 14.1918 36.0709C18.1787 34.3405 19.4783 31.5566 19.8672 29.5254C19.8903 29.4046 19.8812 29.2797 19.8406 29.1636C19.8001 29.0474 19.7297 28.944 19.6364 28.8637C17.5604 27.0717 15.809 24.3816 14.7038 21.2872C14.6727 21.1985 14.6236 21.1171 14.5597 21.048C13.0979 19.4588 12.2585 17.7788 12.2585 16.44C12.2585 15.658 12.5537 15.1334 13.2182 14.7375C13.3177 14.678 13.4009 14.5947 13.4602 14.4951C13.5196 14.3954 13.5532 14.2826 13.5581 14.1668C13.8673 7.04072 18.9425 1.43109 25.1677 1.39471L25.3174 1.40451C31.5733 1.49124 36.6164 7.22118 36.7968 14.4479C36.7993 14.5467 36.8229 14.6438 36.8658 14.7328C36.9087 14.8218 36.9701 14.9007 37.0458 14.9641C37.4837 15.3349 37.6879 15.8049 37.6879 16.4428C37.6879 17.5633 37.0906 18.9412 36.0078 20.3206C35.9562 20.3869 35.9165 20.4617 35.8903 20.5416C34.7712 24.0892 32.7624 27.2214 30.3814 29.1379C30.2828 29.2176 30.2076 29.3224 30.1637 29.4414C30.1199 29.5604 30.1091 29.689 30.1324 29.8136C30.5213 31.8434 31.8209 34.6258 35.8078 36.3591C36.2792 36.5633 37.0109 36.7228 37.9383 36.9228C41.4034 37.6727 47.2019 38.9303 48.6246 44.2419C48.6485 44.3307 48.6896 44.4138 48.7456 44.4867C48.8017 44.5595 48.8715 44.6206 48.9511 44.6665C49.0307 44.7123 49.1186 44.742 49.2097 44.7539C49.3008 44.7658 49.3934 44.7596 49.4821 44.7358C49.5709 44.7119 49.654 44.6707 49.7269 44.6147C49.7997 44.5587 49.8608 44.4889 49.9066 44.4093C49.9525 44.3296 49.9822 44.2418 49.9941 44.1506C50.006 44.0595 49.9998 43.967 49.976 43.8782C48.3322 37.7412 41.763 36.3185 38.2349 35.5547C37.4165 35.377 36.7101 35.2246 36.366 35.0735C33.764 33.9432 32.1608 32.2211 31.5943 29.9465C34.0102 27.8719 36.0316 24.6712 37.1871 21.0816C38.414 19.4868 39.0882 17.8445 39.0882 16.4414C39.0882 15.5055 38.7861 14.7249 38.1873 14.115C37.8544 6.27551 32.2602 0.10212 25.3174 0.00279782L25.1089 0C18.292 0.0363717 12.674 6.04749 12.183 13.7513C11.3073 14.3948 10.8624 15.2971 10.8624 16.4428C10.8624 18.0977 11.7983 20.0772 13.4364 21.8929C14.5681 25.0027 16.3224 27.7348 18.4109 29.6471C17.8472 31.9301 16.2426 33.6578 13.6351 34.7895C13.2979 34.9364 12.6264 35.0973 11.8487 35.2819C8.29402 36.1269 1.67997 37.7006 0.0236634 43.881C-0.0241703 44.0602 0.00112794 44.2511 0.0939947 44.4116C0.186861 44.5722 0.339692 44.6893 0.518878 44.7372Z" fill="white"/>
</svg>
