<svg width="60" height="62" viewBox="0 0 60 62" fill="none" xmlns="http://www.w3.org/2000/svg">
<path d="M48 27.5V53.375C48 54.1137 47.8545 54.8451 47.5718 55.5276C47.2891 56.2101 46.8748 56.8301 46.3525 57.3525C45.8301 57.8748 45.2101 58.2891 44.5276 58.5718C43.8451 58.8545 43.1137 59 42.375 59H8.625C7.13316 59 5.70242 58.4074 4.64752 57.3525C3.59263 56.2976 3 54.8668 3 53.375V19.625C3 18.1332 3.59263 16.7024 4.64752 15.6475C5.70242 14.5926 7.13316 14 8.625 14H32.1769" stroke="#44859F" stroke-width="6" stroke-linecap="round" stroke-linejoin="round"/>
<path d="M58.9964 1.15761L58.9957 1.15689C58.8129 0.956009 58.5912 0.794278 58.3441 0.681473C58.097 0.568669 57.8297 0.507133 57.5581 0.500584C57.2866 0.494035 57.0165 0.54261 56.7643 0.643371C56.512 0.744134 56.2828 0.894992 56.0905 1.08683L56.0901 1.08726L54.1583 3.00971C54.1581 3.00985 54.158 3.00999 54.1579 3.01012C54.0176 3.15072 53.9388 3.34123 53.9388 3.53986C53.9388 3.73848 54.0176 3.92899 54.1578 4.06958L58.9964 1.15761ZM58.9964 1.15761C59.7124 1.94127 59.6571 3.187 58.8794 3.96335L56.9956 5.83774L56.9939 5.83945C56.9243 5.90946 56.8414 5.96502 56.7502 6.00293C56.659 6.04084 56.5612 6.06036 56.4624 6.06036C56.3636 6.06036 56.2658 6.04084 56.1746 6.00293C56.0834 5.96502 56.0005 5.90946 55.9308 5.83945L55.9297 5.83832L54.1583 4.07001L58.9964 1.15761ZM22.0436 35.0728L22.044 35.0724L50.2499 6.91654C50.4198 6.74714 50.6499 6.65201 50.8898 6.65201C51.1294 6.65201 51.3592 6.74687 51.529 6.91582C51.5292 6.91606 51.5294 6.9163 51.5297 6.91654L53.082 8.47665C53.0822 8.47683 53.0824 8.47702 53.0825 8.4772C53.2501 8.64682 53.344 8.87562 53.344 9.11403C53.344 9.35244 53.2501 9.58122 53.0826 9.75083C53.0824 9.75103 53.0822 9.75123 53.082 9.75142L24.9275 37.959L24.9271 37.9594C24.8174 38.0696 24.6811 38.1497 24.5314 38.192L24.5197 38.1953L24.5081 38.1992L20.6373 39.4999C20.6196 39.5042 20.6012 39.5041 20.5836 39.4996C20.5643 39.4947 20.5466 39.4847 20.5325 39.4706L20.1793 39.8237L20.5325 39.4705C20.5184 39.4564 20.5083 39.4388 20.5034 39.4194C20.4989 39.4018 20.4989 39.3833 20.5032 39.3657L21.8039 35.4917L21.8077 35.4802L21.811 35.4685C21.8533 35.3188 21.9334 35.1826 22.0436 35.0728Z" fill="#44859F" stroke="#44859F"/>
</svg>
