<svg width="543" height="183" viewBox="0 0 543 183" fill="none" xmlns="http://www.w3.org/2000/svg">
<line x1="66.2787" y1="174.825" x2="150.544" y2="104.118" stroke="#427E95" stroke-width="20"/>
<line x1="113.012" y1="148.665" x2="42.3058" y2="64.4003" stroke="#427E95" stroke-width="20"/>
<line x1="36.3646" y1="139.175" x2="120.629" y2="68.4679" stroke="#427E95" stroke-width="20"/>
<line x1="6.45005" y1="103.524" x2="90.7149" y2="32.8175" stroke="#427E95" stroke-width="20"/>
<path d="M198.504 69.84C199.229 69.84 199.848 70.1173 200.36 70.672C200.915 71.184 201.192 71.8453 201.192 72.656C201.192 73.5093 200.872 74.2133 200.232 74.768C199.635 75.3653 198.909 75.5787 198.056 75.408C196.392 75.1093 195.133 74.96 194.28 74.96C193.427 74.96 192.637 74.704 191.912 74.192C191.229 73.7227 190.717 73.104 190.376 72.336C190.248 71.952 190.013 71.888 189.672 72.144C188.435 73.2107 187.069 74.0213 185.576 74.576C184.125 75.1733 182.589 75.472 180.968 75.472C178.323 75.472 175.976 74.96 173.928 73.936C171.88 72.912 170.152 71.568 168.744 69.904C167.336 68.24 166.269 66.384 165.544 64.336C164.819 62.288 164.456 60.24 164.456 58.192C164.456 56.1867 164.776 54.1813 165.416 52.176C166.056 50.128 167.016 48.2507 168.296 46.544C169.619 44.8373 171.283 43.472 173.288 42.448C175.293 41.424 177.64 40.912 180.328 40.912C182.077 40.912 183.72 41.2747 185.256 42C186.792 42.7253 188.157 43.664 189.352 44.816C189.48 44.944 189.608 45.008 189.736 45.008C189.949 45.008 190.056 44.8373 190.056 44.496V32.016C190.056 31.6747 189.907 31.504 189.608 31.504C189.181 31.504 188.755 31.5467 188.328 31.632C187.944 31.6747 187.517 31.696 187.048 31.696C186.365 31.696 185.768 31.4613 185.256 30.992C184.744 30.48 184.488 29.8613 184.488 29.136C184.488 28.3253 184.765 27.664 185.32 27.152C185.875 26.64 186.557 26.4267 187.368 26.512C187.965 26.5547 188.605 26.6187 189.288 26.704C190.013 26.7467 190.717 26.7893 191.4 26.832C192.552 26.8747 193.533 27.3013 194.344 28.112C195.197 28.9227 195.624 29.904 195.624 31.056V69.712C195.624 70.0533 195.795 70.224 196.136 70.224C196.563 70.224 196.947 70.16 197.288 70.032C197.672 69.904 198.077 69.84 198.504 69.84ZM180.904 70.032C184.701 70.032 187.667 68.6453 189.8 65.872C189.971 65.6587 190.056 65.424 190.056 65.168V51.216C190.056 50.96 189.971 50.7253 189.8 50.512C188.648 49.232 187.283 48.208 185.704 47.44C184.125 46.672 182.504 46.288 180.84 46.288C178.792 46.288 176.957 46.8 175.336 47.824C173.757 48.8053 172.499 50.192 171.56 51.984C170.664 53.776 170.216 55.824 170.216 58.128C170.216 60.3893 170.685 62.416 171.624 64.208C172.563 66 173.843 67.4293 175.464 68.496C177.085 69.52 178.899 70.032 180.904 70.032ZM241.717 69.968C242.57 69.8827 243.296 70.1173 243.893 70.672C244.49 71.184 244.789 71.8667 244.789 72.72C244.789 73.5307 244.469 74.2133 243.829 74.768C243.232 75.3227 242.528 75.5573 241.717 75.472C241.12 75.3867 240.48 75.28 239.797 75.152C239.114 75.0667 238.474 75.0027 237.877 74.96C236.725 74.9173 235.722 74.4907 234.869 73.68C234.058 72.8693 233.653 71.888 233.653 70.736C233.653 70.5227 233.589 70.416 233.461 70.416C233.29 70.416 233.12 70.5013 232.949 70.672C230.005 73.872 226.762 75.472 223.221 75.472C220.149 75.472 217.504 74.6827 215.285 73.104C214.304 72.3787 213.322 71.3333 212.341 69.968C211.402 68.56 210.933 66.704 210.933 64.4V46.416C210.933 46.0747 210.784 45.904 210.485 45.904C210.058 45.904 209.632 45.9467 209.205 46.032C208.821 46.0747 208.394 46.096 207.925 46.096C207.242 46.096 206.645 45.8613 206.133 45.392C205.621 44.88 205.365 44.24 205.365 43.472C205.365 42.704 205.642 42.064 206.197 41.552C206.752 41.04 207.413 40.8267 208.181 40.912C209.162 40.9973 209.93 41.0613 210.485 41.104C211.04 41.104 211.637 41.1253 212.277 41.168C213.429 41.168 214.41 41.5947 215.221 42.448C216.074 43.2587 216.501 44.24 216.501 45.392V64.4C216.501 65.7227 216.778 66.768 217.333 67.536C217.93 68.2613 218.613 68.7947 219.381 69.136C220.192 69.4773 220.96 69.6907 221.685 69.776C222.41 69.8613 222.922 69.904 223.221 69.904C225.098 69.904 226.933 69.2853 228.725 68.048C230.517 66.8107 232.096 65.0827 233.461 62.864C233.589 62.608 233.653 62.3733 233.653 62.16V46.416C233.653 46.0747 233.504 45.904 233.205 45.904C232.778 45.904 232.352 45.9467 231.925 46.032C231.498 46.0747 231.072 46.096 230.645 46.096C229.962 46.096 229.365 45.8613 228.853 45.392C228.341 44.88 228.085 44.24 228.085 43.472C228.085 42.704 228.362 42.064 228.917 41.552C229.472 41.04 230.133 40.8267 230.901 40.912C231.882 40.9973 232.65 41.0613 233.205 41.104C233.76 41.104 234.357 41.1253 234.997 41.168C236.149 41.168 237.13 41.5947 237.941 42.448C238.794 43.2587 239.221 44.24 239.221 45.392V69.712C239.221 70.1813 239.434 70.3733 239.861 70.288L241.717 69.968ZM305.234 70.288C306.002 70.2027 306.663 70.416 307.218 70.928C307.773 71.44 308.05 72.1013 308.05 72.912C308.05 73.68 307.773 74.32 307.218 74.832C306.663 75.344 306.002 75.5787 305.234 75.536C303.911 75.408 302.866 75.3013 302.098 75.216C301.373 75.1733 300.669 75.152 299.986 75.152C299.218 75.152 298.471 75.1733 297.746 75.216C297.021 75.3013 296.018 75.408 294.738 75.536C293.97 75.5787 293.309 75.344 292.754 74.832C292.199 74.32 291.922 73.68 291.922 72.912C291.922 72.1013 292.199 71.44 292.754 70.928C293.309 70.416 293.97 70.2027 294.738 70.288L296.594 70.416H296.722C297.021 70.416 297.17 70.2453 297.17 69.904V53.648C297.17 51.8133 296.914 50.2987 296.402 49.104C295.933 47.8667 295.271 47.1413 294.418 46.928C294.119 46.8427 293.821 46.7787 293.522 46.736C293.223 46.6933 292.925 46.672 292.626 46.672C289.639 46.672 286.183 48.72 282.258 52.816C282.045 53.0293 281.938 53.264 281.938 53.52V69.904C281.938 70.2453 282.13 70.416 282.514 70.416L284.434 70.288C285.245 70.2027 285.927 70.416 286.482 70.928C287.037 71.44 287.314 72.1013 287.314 72.912C287.314 73.68 287.015 74.32 286.418 74.832C285.863 75.344 285.202 75.5787 284.434 75.536C283.111 75.408 282.066 75.3013 281.298 75.216C280.573 75.1733 279.89 75.152 279.25 75.152C278.439 75.152 277.671 75.1733 276.946 75.216C276.263 75.3013 275.282 75.408 274.002 75.536C273.234 75.5787 272.551 75.344 271.954 74.832C271.399 74.32 271.122 73.68 271.122 72.912C271.122 72.1013 271.399 71.44 271.954 70.928C272.509 70.416 273.191 70.2027 274.002 70.288L275.922 70.416C276.306 70.416 276.498 70.2453 276.498 69.904V53.648C276.498 49.68 275.687 47.4187 274.066 46.864C273.597 46.6933 273.085 46.608 272.53 46.608C271.079 46.608 269.458 47.1627 267.666 48.272C265.874 49.3387 263.975 50.896 261.97 52.944C261.757 53.1573 261.65 53.392 261.65 53.648V69.904C261.65 70.2453 261.842 70.416 262.226 70.416L264.146 70.288C264.914 70.2027 265.575 70.416 266.13 70.928C266.685 71.44 266.962 72.1013 266.962 72.912C266.962 73.68 266.685 74.32 266.13 74.832C265.575 75.344 264.914 75.5787 264.146 75.536C262.823 75.408 261.778 75.3013 261.01 75.216C260.285 75.1733 259.581 75.152 258.898 75.152C258.13 75.152 257.383 75.1733 256.658 75.216C255.933 75.3013 254.93 75.408 253.65 75.536C252.882 75.5787 252.221 75.344 251.666 74.832C251.111 74.32 250.834 73.68 250.834 72.912C250.834 72.1013 251.111 71.44 251.666 70.928C252.221 70.416 252.882 70.2027 253.65 70.288L255.57 70.416C255.954 70.416 256.146 70.2453 256.146 69.904V46.544C256.146 46.2027 255.997 46.032 255.698 46.032C255.271 46.032 254.866 46.0533 254.482 46.096C254.098 46.1387 253.714 46.2027 253.33 46.288C252.519 46.3733 251.815 46.16 251.218 45.648C250.621 45.0933 250.322 44.4107 250.322 43.6C250.322 42.7467 250.621 42.064 251.218 41.552C251.815 41.04 252.519 40.8267 253.33 40.912C254.183 41.0827 255.25 41.2107 256.53 41.296H258.898C259.666 41.296 260.306 41.5733 260.818 42.128C261.373 42.64 261.65 43.28 261.65 44.048V45.52C261.65 45.7333 261.714 45.8827 261.842 45.968C262.013 46.0533 262.183 46.0107 262.354 45.84C266.151 42.512 269.735 40.848 273.106 40.848C274.557 40.848 275.922 41.168 277.202 41.808C278.909 42.6187 280.146 44.1547 280.914 46.416C281.127 46.8427 281.383 46.9067 281.682 46.608C285.735 42.768 289.575 40.848 293.202 40.848C294.781 40.848 296.253 41.1893 297.618 41.872C299.026 42.5547 300.093 43.6 300.818 45.008C301.543 46.3733 302.034 47.8453 302.29 49.424C302.589 51.0027 302.738 52.4107 302.738 53.648V69.904C302.738 70.2453 302.93 70.416 303.314 70.416L305.234 70.288ZM368.484 70.288C369.252 70.2027 369.913 70.416 370.468 70.928C371.023 71.44 371.3 72.1013 371.3 72.912C371.3 73.68 371.023 74.32 370.468 74.832C369.913 75.344 369.252 75.5787 368.484 75.536C367.161 75.408 366.116 75.3013 365.348 75.216C364.623 75.1733 363.919 75.152 363.236 75.152C362.468 75.152 361.721 75.1733 360.996 75.216C360.271 75.3013 359.268 75.408 357.988 75.536C357.22 75.5787 356.559 75.344 356.004 74.832C355.449 74.32 355.172 73.68 355.172 72.912C355.172 72.1013 355.449 71.44 356.004 70.928C356.559 70.416 357.22 70.2027 357.988 70.288L359.844 70.416H359.972C360.271 70.416 360.42 70.2453 360.42 69.904V53.648C360.42 51.8133 360.164 50.2987 359.652 49.104C359.183 47.8667 358.521 47.1413 357.668 46.928C357.369 46.8427 357.071 46.7787 356.772 46.736C356.473 46.6933 356.175 46.672 355.876 46.672C352.889 46.672 349.433 48.72 345.508 52.816C345.295 53.0293 345.188 53.264 345.188 53.52V69.904C345.188 70.2453 345.38 70.416 345.764 70.416L347.684 70.288C348.495 70.2027 349.177 70.416 349.732 70.928C350.287 71.44 350.564 72.1013 350.564 72.912C350.564 73.68 350.265 74.32 349.668 74.832C349.113 75.344 348.452 75.5787 347.684 75.536C346.361 75.408 345.316 75.3013 344.548 75.216C343.823 75.1733 343.14 75.152 342.5 75.152C341.689 75.152 340.921 75.1733 340.196 75.216C339.513 75.3013 338.532 75.408 337.252 75.536C336.484 75.5787 335.801 75.344 335.204 74.832C334.649 74.32 334.372 73.68 334.372 72.912C334.372 72.1013 334.649 71.44 335.204 70.928C335.759 70.416 336.441 70.2027 337.252 70.288L339.172 70.416C339.556 70.416 339.748 70.2453 339.748 69.904V53.648C339.748 49.68 338.937 47.4187 337.316 46.864C336.847 46.6933 336.335 46.608 335.78 46.608C334.329 46.608 332.708 47.1627 330.916 48.272C329.124 49.3387 327.225 50.896 325.22 52.944C325.007 53.1573 324.9 53.392 324.9 53.648V69.904C324.9 70.2453 325.092 70.416 325.476 70.416L327.396 70.288C328.164 70.2027 328.825 70.416 329.38 70.928C329.935 71.44 330.212 72.1013 330.212 72.912C330.212 73.68 329.935 74.32 329.38 74.832C328.825 75.344 328.164 75.5787 327.396 75.536C326.073 75.408 325.028 75.3013 324.26 75.216C323.535 75.1733 322.831 75.152 322.148 75.152C321.38 75.152 320.633 75.1733 319.908 75.216C319.183 75.3013 318.18 75.408 316.9 75.536C316.132 75.5787 315.471 75.344 314.916 74.832C314.361 74.32 314.084 73.68 314.084 72.912C314.084 72.1013 314.361 71.44 314.916 70.928C315.471 70.416 316.132 70.2027 316.9 70.288L318.82 70.416C319.204 70.416 319.396 70.2453 319.396 69.904V46.544C319.396 46.2027 319.247 46.032 318.948 46.032C318.521 46.032 318.116 46.0533 317.732 46.096C317.348 46.1387 316.964 46.2027 316.58 46.288C315.769 46.3733 315.065 46.16 314.468 45.648C313.871 45.0933 313.572 44.4107 313.572 43.6C313.572 42.7467 313.871 42.064 314.468 41.552C315.065 41.04 315.769 40.8267 316.58 40.912C317.433 41.0827 318.5 41.2107 319.78 41.296H322.148C322.916 41.296 323.556 41.5733 324.068 42.128C324.623 42.64 324.9 43.28 324.9 44.048V45.52C324.9 45.7333 324.964 45.8827 325.092 45.968C325.263 46.0533 325.433 46.0107 325.604 45.84C329.401 42.512 332.985 40.848 336.356 40.848C337.807 40.848 339.172 41.168 340.452 41.808C342.159 42.6187 343.396 44.1547 344.164 46.416C344.377 46.8427 344.633 46.9067 344.932 46.608C348.985 42.768 352.825 40.848 356.452 40.848C358.031 40.848 359.503 41.1893 360.868 41.872C362.276 42.5547 363.343 43.6 364.068 45.008C364.793 46.3733 365.284 47.8453 365.54 49.424C365.839 51.0027 365.988 52.4107 365.988 53.648V69.904C365.988 70.2453 366.18 70.416 366.564 70.416L368.484 70.288ZM411.766 40.912C412.534 40.8267 413.195 41.04 413.75 41.552C414.305 42.064 414.582 42.7253 414.582 43.536C414.582 44.304 414.305 44.944 413.75 45.456C413.195 45.968 412.534 46.2027 411.766 46.16L410.87 46.032H410.742C410.529 46.032 410.337 46.16 410.166 46.416L394.55 81.296C391.478 87.696 387.553 90.896 382.774 90.896C381.238 90.896 379.83 90.5333 378.55 89.808C377.313 89.1253 376.31 88.208 375.542 87.056C374.774 85.904 374.39 84.6453 374.39 83.28C374.39 81.7867 374.817 80.5707 375.67 79.632C376.523 78.736 377.59 78.288 378.87 78.288C379.979 78.288 380.918 78.6933 381.686 79.504C382.497 80.3573 382.902 81.3387 382.902 82.448C382.902 83.472 382.625 84.304 382.07 84.944C381.729 85.2853 381.75 85.5627 382.134 85.776C382.39 85.8613 382.603 85.904 382.774 85.904C385.419 85.904 387.595 83.984 389.302 80.144L391.542 75.088C391.627 74.832 391.627 74.576 391.542 74.32L379.254 46.416C379.083 46.1173 378.849 45.9893 378.55 46.032L377.334 46.16C376.566 46.2027 375.905 45.968 375.35 45.456C374.795 44.944 374.518 44.304 374.518 43.536C374.518 42.7253 374.795 42.064 375.35 41.552C375.905 41.04 376.566 40.8267 377.334 40.912C378.529 40.9973 379.531 41.0613 380.342 41.104C381.153 41.1467 381.899 41.168 382.582 41.168C383.307 41.168 384.075 41.1467 384.886 41.104C385.697 41.0613 386.678 40.9973 387.83 40.912C388.598 40.8267 389.259 41.04 389.814 41.552C390.369 42.064 390.646 42.7253 390.646 43.536C390.646 44.2613 390.39 44.88 389.878 45.392C389.366 45.904 388.747 46.16 388.022 46.16C387.681 46.16 387.297 46.1387 386.87 46.096C386.443 46.0107 386.017 45.9467 385.59 45.904H385.462C385.035 45.904 384.929 46.1173 385.142 46.544L394.23 67.344C394.358 67.6 394.486 67.728 394.614 67.728C394.827 67.728 394.955 67.6 394.998 67.344L404.342 46.544C404.385 46.4587 404.406 46.352 404.406 46.224C404.406 46.0107 404.278 45.904 404.022 45.904C403.595 45.904 403.126 45.9253 402.614 45.968C402.145 46.0107 401.697 46.0747 401.27 46.16C400.502 46.2027 399.841 45.968 399.286 45.456C398.731 44.944 398.454 44.304 398.454 43.536C398.454 42.7253 398.731 42.064 399.286 41.552C399.841 41.04 400.502 40.8267 401.27 40.912C402.465 40.9973 403.467 41.0613 404.278 41.104C405.089 41.1467 405.835 41.168 406.518 41.168C407.243 41.168 408.011 41.1467 408.822 41.104C409.633 41.0613 410.614 40.9973 411.766 40.912ZM463.506 69.904C463.634 69.8613 463.826 69.84 464.082 69.84C464.807 69.84 465.426 70.1173 465.938 70.672C466.45 71.184 466.706 71.8453 466.706 72.656C466.706 73.552 466.386 74.2773 465.746 74.832C465.106 75.4293 464.359 75.6427 463.506 75.472C462.866 75.3013 462.226 75.1733 461.586 75.088C460.989 75.0453 460.413 75.0027 459.858 74.96C459.005 74.96 458.237 74.7253 457.554 74.256C456.871 73.7867 456.359 73.1893 456.018 72.464C455.805 72.08 455.549 72.016 455.25 72.272C453.799 73.3387 452.242 74.128 450.578 74.64C448.914 75.1947 446.951 75.472 444.69 75.472C441.703 75.472 439.25 74.6187 437.33 72.912C435.41 71.1627 434.45 68.9227 434.45 66.192C434.45 64.1013 434.962 62.2667 435.986 60.688C437.01 59.0667 438.418 57.808 440.21 56.912C442.045 55.9733 444.178 55.504 446.61 55.504C447.89 55.504 449.213 55.632 450.578 55.888C451.986 56.144 453.437 56.5707 454.93 57.168C454.973 57.168 455.015 57.1893 455.058 57.232C455.101 57.232 455.143 57.232 455.186 57.232C455.485 57.232 455.634 57.0613 455.634 56.72V54.736C455.634 51.8347 454.887 49.68 453.394 48.272C451.943 46.8213 450.194 46.096 448.146 46.096C447.506 46.096 446.845 46.1813 446.162 46.352C445.522 46.48 444.861 46.672 444.178 46.928C443.837 47.056 443.73 47.2907 443.858 47.632C443.901 47.8027 443.922 47.952 443.922 48.08C443.965 48.208 443.986 48.3573 443.986 48.528C443.986 49.5947 443.602 50.5547 442.834 51.408C442.066 52.2187 441.085 52.624 439.89 52.624C438.653 52.624 437.65 52.1973 436.882 51.344C436.157 50.448 435.794 49.4453 435.794 48.336C435.794 47.7813 435.901 47.2267 436.114 46.672C436.327 46.1173 436.647 45.6053 437.074 45.136C438.269 43.7707 439.741 42.7253 441.49 42C443.282 41.232 445.181 40.848 447.186 40.848C451.623 40.848 455.058 42.064 457.49 44.496C459.922 46.8853 461.138 50.2987 461.138 54.736V69.648C461.138 70.032 461.287 70.224 461.586 70.224C461.927 70.224 462.247 70.1813 462.546 70.096C462.887 70.0107 463.207 69.9467 463.506 69.904ZM444.69 70.096C447.037 70.0107 448.999 69.6267 450.578 68.944C452.199 68.2613 453.799 67.1307 455.378 65.552C455.549 65.3387 455.634 65.104 455.634 64.848V63.44C455.634 63.1413 455.506 62.928 455.25 62.8C454.354 62.3307 453.245 61.8613 451.922 61.392C450.642 60.9227 448.914 60.688 446.738 60.688C444.562 60.688 442.855 61.1787 441.618 62.16C440.381 63.0987 439.762 64.4427 439.762 66.192C439.762 67.344 440.21 68.2827 441.106 69.008C442.045 69.7333 443.239 70.096 444.69 70.096ZM489.048 40.912C491.736 40.912 494.082 41.424 496.088 42.448C498.093 43.472 499.757 44.8373 501.08 46.544C502.402 48.2507 503.384 50.128 504.024 52.176C504.664 54.1813 504.984 56.1867 504.984 58.192C504.984 60.24 504.621 62.288 503.896 64.336C503.17 66.384 502.104 68.24 500.696 69.904C499.288 71.568 497.538 72.912 495.448 73.936C493.4 74.96 491.053 75.472 488.408 75.472C486.957 75.472 485.528 75.216 484.12 74.704C482.712 74.192 481.41 73.4667 480.216 72.528C480.13 72.4427 480.002 72.4 479.832 72.4C479.618 72.4 479.512 72.5493 479.512 72.848V85.2C479.512 85.584 479.704 85.7547 480.088 85.712L481.944 85.584C482.754 85.4987 483.437 85.712 483.992 86.224C484.546 86.736 484.824 87.3973 484.824 88.208C484.824 88.976 484.546 89.5947 483.992 90.064C483.437 90.576 482.754 90.8107 481.944 90.768C480.621 90.64 479.576 90.5547 478.808 90.512C478.082 90.4693 477.4 90.448 476.76 90.448C475.949 90.448 475.181 90.4693 474.456 90.512C473.773 90.5973 472.792 90.6827 471.512 90.768C470.701 90.8107 470.018 90.576 469.464 90.064C468.909 89.5947 468.632 88.976 468.632 88.208C468.632 87.3973 468.909 86.736 469.464 86.224C470.018 85.712 470.701 85.4987 471.512 85.584L473.368 85.712H473.496C473.794 85.712 473.944 85.5413 473.944 85.2V46.864C473.944 46.5227 473.794 46.352 473.496 46.352C473.026 46.352 472.578 46.3947 472.152 46.48C471.768 46.5227 471.341 46.544 470.872 46.544C470.146 46.544 469.506 46.2667 468.952 45.712C468.397 45.1573 468.12 44.496 468.12 43.728C468.12 42.8747 468.418 42.1707 469.016 41.616C469.656 41.0187 470.381 40.7627 471.192 40.848C472.045 40.9333 472.941 41.0187 473.88 41.104C474.861 41.1893 475.8 41.232 476.696 41.232C477.464 41.232 478.125 41.5093 478.68 42.064C479.234 42.6187 479.512 43.28 479.512 44.048V44.368C479.512 44.624 479.576 44.7947 479.704 44.88C479.832 44.9227 479.981 44.8587 480.152 44.688C481.389 43.5787 482.733 42.6827 484.184 42C485.677 41.2747 487.298 40.912 489.048 40.912ZM488.536 70.16C490.541 70.16 492.333 69.648 493.912 68.624C495.533 67.5573 496.813 66.1067 497.752 64.272C498.69 62.4373 499.16 60.3893 499.16 58.128C499.16 55.824 498.712 53.7973 497.816 52.048C496.92 50.256 495.682 48.8693 494.104 47.888C492.525 46.864 490.69 46.352 488.6 46.352C486.893 46.352 485.272 46.7573 483.736 47.568C482.2 48.3787 480.877 49.5307 479.768 51.024C479.597 51.2373 479.512 51.472 479.512 51.728V65.424C479.512 65.6373 479.576 65.8507 479.704 66.064C481.837 68.7947 484.781 70.16 488.536 70.16ZM520.278 36.048C519.126 36.048 518.123 35.6427 517.27 34.832C516.459 33.9787 516.054 32.976 516.054 31.824C516.054 30.6293 516.459 29.6267 517.27 28.816C518.123 28.0053 519.126 27.6 520.278 27.6C521.43 27.6 522.411 28.0053 523.222 28.816C524.075 29.6267 524.502 30.6293 524.502 31.824C524.502 32.976 524.075 33.9787 523.222 34.832C522.411 35.6427 521.43 36.048 520.278 36.048ZM514.774 75.536C513.92 75.5787 513.174 75.3227 512.534 74.768C511.936 74.2133 511.638 73.5093 511.638 72.656C511.638 71.8027 511.936 71.0987 512.534 70.544C513.174 69.9467 513.92 69.6907 514.774 69.776C515.414 69.904 516.118 69.968 516.885 69.968H517.014C517.312 69.968 517.462 69.7973 517.462 69.456V46.928C517.462 46.5867 517.312 46.416 517.014 46.416C516.246 46.416 515.499 46.48 514.774 46.608C513.92 46.6507 513.174 46.3947 512.534 45.84C511.936 45.2853 511.638 44.5813 511.638 43.728C511.638 42.8747 511.958 42.1707 512.598 41.616C513.238 41.0187 513.963 40.7627 514.774 40.848C515.926 40.9333 516.736 41.0187 517.206 41.104C517.718 41.1467 518.059 41.168 518.23 41.168C518.4 41.168 518.614 41.168 518.87 41.168C520.022 41.168 521.003 41.5947 521.814 42.448C522.667 43.2587 523.094 44.24 523.094 45.392V69.456C523.094 69.7973 523.243 69.968 523.542 69.968C524.352 69.968 525.099 69.904 525.782 69.776C526.635 69.6907 527.36 69.9467 527.958 70.544C528.555 71.0987 528.854 71.8027 528.854 72.656C528.854 73.5093 528.555 74.2133 527.958 74.768C527.36 75.3227 526.635 75.5787 525.782 75.536C524.928 75.4507 524.011 75.3653 523.03 75.28C522.091 75.1947 521.174 75.152 520.278 75.152C519.382 75.152 518.443 75.1947 517.462 75.28C516.523 75.3653 515.627 75.4507 514.774 75.536Z" fill="black"/>
<path d="M169.213 167V120.455H184.327C187.145 120.455 189.524 120.955 191.463 121.955C193.403 122.955 194.872 124.356 195.872 126.159C196.887 127.962 197.395 130.061 197.395 132.455C197.395 134.333 197.092 136 196.486 137.455C195.88 138.909 195.031 140.114 193.94 141.068C192.865 142.008 191.599 142.659 190.145 143.023V143.295C191.751 143.417 193.243 143.977 194.622 144.977C196.001 145.962 197.107 147.303 197.94 149C198.789 150.697 199.213 152.674 199.213 154.932C199.213 157.311 198.698 159.409 197.668 161.227C196.653 163.03 195.13 164.447 193.099 165.477C191.069 166.492 188.554 167 185.554 167H169.213ZM172.054 164.364H185.554C189.054 164.364 191.743 163.485 193.622 161.727C195.516 159.97 196.463 157.705 196.463 154.932C196.463 152.977 196.001 151.227 195.077 149.682C194.168 148.136 192.903 146.917 191.281 146.023C189.66 145.114 187.781 144.659 185.645 144.659H172.054V164.364ZM172.054 142.068H185.304C187.289 142.068 188.971 141.636 190.349 140.773C191.743 139.909 192.804 138.75 193.531 137.295C194.274 135.841 194.645 134.227 194.645 132.455C194.645 129.576 193.751 127.295 191.963 125.614C190.175 123.932 187.63 123.091 184.327 123.091H172.054V142.068ZM261.123 120.455H263.964V151.273C263.964 154.439 263.229 157.265 261.76 159.75C260.29 162.22 258.26 164.174 255.669 165.614C253.093 167.038 250.131 167.75 246.782 167.75C243.449 167.75 240.487 167.038 237.896 165.614C235.305 164.174 233.267 162.212 231.782 159.727C230.313 157.242 229.585 154.424 229.601 151.273V120.455H232.442V151.114C232.442 153.795 233.048 156.182 234.26 158.273C235.487 160.364 237.176 162.015 239.328 163.227C241.479 164.424 243.964 165.023 246.782 165.023C249.601 165.023 252.085 164.424 254.237 163.227C256.388 162.015 258.07 160.364 259.282 158.273C260.51 156.182 261.123 153.795 261.123 151.114V120.455ZM299.454 120.455V167H296.613V120.455H299.454ZM332.126 167V120.455H334.967V164.364H357.694V167H332.126ZM400.235 167H387.326V120.455H401.235C405.598 120.455 409.333 121.379 412.439 123.227C415.545 125.076 417.924 127.727 419.576 131.182C421.242 134.621 422.068 138.75 422.053 143.568C422.038 148.492 421.174 152.705 419.462 156.205C417.75 159.689 415.273 162.364 412.03 164.227C408.788 166.076 404.856 167 400.235 167ZM390.167 164.364H400.121C404.273 164.364 407.773 163.538 410.621 161.886C413.47 160.22 415.621 157.833 417.076 154.727C418.545 151.621 419.273 147.902 419.257 143.568C419.257 139.295 418.553 135.636 417.144 132.591C415.735 129.53 413.682 127.182 410.985 125.545C408.303 123.909 405.015 123.091 401.121 123.091H390.167V164.364ZM452.338 167V120.455H478.247V123.091H455.179V142.386H476.861V145.023H455.179V164.364H478.793V167H452.338ZM509.226 167V120.455H523.567C526.506 120.455 529.036 121.03 531.157 122.182C533.279 123.333 534.907 124.932 536.044 126.977C537.18 129.008 537.748 131.371 537.748 134.068C537.748 136.735 537.18 139.083 536.044 141.114C534.907 143.129 533.279 144.705 531.157 145.841C529.051 146.977 526.529 147.545 523.589 147.545H510.748V144.886H523.521C525.915 144.886 527.96 144.439 529.657 143.545C531.354 142.652 532.657 141.402 533.567 139.795C534.476 138.174 534.93 136.265 534.93 134.068C534.93 131.856 534.476 129.932 533.567 128.295C532.657 126.644 531.347 125.364 529.635 124.455C527.938 123.545 525.892 123.091 523.498 123.091H512.067V167H509.226ZM528.339 145.909L539.794 167H536.521L525.135 145.909H528.339Z" fill="black"/>
</svg>
