<svg width="208" height="76" viewBox="0 0 208 76" fill="none" xmlns="http://www.w3.org/2000/svg">
<path d="M75.3125 69V53H80.5078C81.4766 53 82.2943 53.1719 82.9609 53.5156C83.6276 53.8594 84.1328 54.3411 84.4766 54.9609C84.8255 55.5807 85 56.3021 85 57.125C85 57.7708 84.8958 58.3437 84.6875 58.8437C84.4792 59.3437 84.1875 59.7578 83.8125 60.0859C83.4427 60.4089 83.0078 60.6328 82.5078 60.7578V60.8516C83.0599 60.8932 83.5729 61.0859 84.0469 61.4297C84.5208 61.7682 84.901 62.2292 85.1875 62.8125C85.4792 63.3958 85.625 64.0755 85.625 64.8516C85.625 65.6693 85.4479 66.3906 85.0938 67.0156C84.7448 67.6354 84.2214 68.1224 83.5234 68.4766C82.8255 68.8255 81.9609 69 80.9297 69H75.3125ZM76.2891 68.0937H80.9297C82.1328 68.0937 83.0573 67.7917 83.7031 67.1875C84.3542 66.5833 84.6797 65.8047 84.6797 64.8516C84.6797 64.1797 84.5208 63.5781 84.2031 63.0469C83.8906 62.5156 83.4557 62.0964 82.8984 61.7891C82.3411 61.4766 81.6953 61.3203 80.9609 61.3203H76.2891V68.0937ZM76.2891 60.4297H80.8438C81.526 60.4297 82.1042 60.2812 82.5781 59.9844C83.0573 59.6875 83.4219 59.2891 83.6719 58.7891C83.9271 58.2891 84.0547 57.7344 84.0547 57.125C84.0547 56.1354 83.7474 55.3516 83.1328 54.7734C82.5182 54.1953 81.6432 53.9062 80.5078 53.9062H76.2891V60.4297ZM106.907 53H107.883V63.5937C107.883 64.6823 107.631 65.6536 107.125 66.5078C106.62 67.3568 105.922 68.0286 105.032 68.5234C104.146 69.013 103.128 69.2578 101.977 69.2578C100.831 69.2578 99.8129 69.013 98.9223 68.5234C98.0316 68.0286 97.3311 67.3542 96.8207 66.5C96.3155 65.6458 96.0655 64.6771 96.0707 63.5937V53H97.0473V63.5391C97.0473 64.4609 97.2556 65.2812 97.6723 66C98.0941 66.7187 98.6749 67.2865 99.4145 67.7031C100.154 68.1146 101.008 68.3203 101.977 68.3203C102.946 68.3203 103.8 68.1146 104.539 67.7031C105.279 67.2865 105.857 66.7187 106.274 66C106.696 65.2812 106.907 64.4609 106.907 63.5391V53ZM120.083 53V69H119.106V53H120.083ZM131.314 69V53H132.29V68.0937H140.103V69H131.314ZM154.726 69H150.289V53H155.07C156.57 53 157.854 53.3177 158.921 53.9531C159.989 54.5885 160.807 55.5 161.375 56.6875C161.948 57.8698 162.231 59.2891 162.226 60.9453C162.221 62.638 161.924 64.0859 161.336 65.2891C160.747 66.487 159.895 67.4062 158.781 68.0469C157.666 68.6823 156.315 69 154.726 69ZM151.265 68.0937H154.687C156.114 68.0937 157.317 67.8099 158.296 67.2422C159.276 66.6693 160.015 65.849 160.515 64.7812C161.02 63.7135 161.27 62.4349 161.265 60.9453C161.265 59.4766 161.023 58.2187 160.539 57.1719C160.054 56.1198 159.349 55.3125 158.421 54.75C157.5 54.1875 156.369 53.9062 155.031 53.9062H151.265V68.0937ZM172.637 69V53H181.543V53.9062H173.613V60.5391H181.066V61.4453H173.613V68.0937H181.73V69H172.637ZM192.192 69V53H197.121C198.132 53 199.002 53.1979 199.731 53.5937C200.46 53.9896 201.02 54.5391 201.411 55.2422C201.801 55.9401 201.996 56.7526 201.996 57.6797C201.996 58.5964 201.801 59.4036 201.411 60.1016C201.02 60.7943 200.46 61.3359 199.731 61.7266C199.007 62.1172 198.14 62.3125 197.129 62.3125H192.715V61.3984H197.106C197.929 61.3984 198.632 61.2448 199.215 60.9375C199.799 60.6302 200.246 60.2005 200.559 59.6484C200.871 59.0911 201.028 58.4349 201.028 57.6797C201.028 56.9193 200.871 56.2578 200.559 55.6953C200.246 55.1276 199.796 54.6875 199.207 54.375C198.624 54.0625 197.921 53.9062 197.098 53.9062H193.168V69H192.192ZM198.762 61.75L202.7 69H201.575L197.661 61.75H198.762Z" fill="#14242A"/>
<line x1="48.0428" y1="60.1893" x2="19.1173" y2="25.7173" stroke="#427E95" stroke-width="8"/>
<line x1="14.8732" y1="57.9973" x2="49.3452" y2="29.0719" stroke="#427E95" stroke-width="8"/>
<path d="M2.98242 43.8262L37.4544 14.9007" stroke="#427E95" stroke-width="8"/>
<line x1="27.0866" y1="72.552" x2="61.5586" y2="43.6266" stroke="#427E95" stroke-width="8"/>
<path d="M87.498 38H83.318V36.416L81.272 38.044C80.8027 38.1613 80.238 38.22 79.578 38.22C78.61 38.22 77.7373 37.9707 76.96 37.472C76.1973 36.9587 75.596 36.2693 75.156 35.404C74.7307 34.5387 74.518 33.5853 74.518 32.544C74.518 31.4147 74.8627 30.3587 75.552 29.376C76.2413 28.3787 77.0993 27.5867 78.126 27C79.1673 26.3987 80.172 26.098 81.14 26.098C81.9467 26.098 82.68 26.3253 83.34 26.78V22.248L81.382 20.884V20.202L85.144 18.794H85.98V36.35L87.938 37.12L87.498 38ZM80.7 36.35C81.14 36.35 81.558 36.2913 81.954 36.174C82.3647 36.042 82.8193 35.8 83.318 35.448V30.432C83.23 29.6987 82.8853 29.1047 82.284 28.65C81.6973 28.1807 80.8907 27.946 79.864 27.946C78.2067 27.946 77.378 29.1267 77.378 31.488C77.378 32.8667 77.664 34.0253 78.236 34.964C78.808 35.888 79.6293 36.35 80.7 36.35ZM102.68 38H98.4997V35.712L95.7057 38.044C95.3977 38.1613 94.9944 38.22 94.4957 38.22C93.4984 38.22 92.7064 37.9193 92.1197 37.318C91.5331 36.702 91.2397 35.8733 91.2397 34.832V29.574L89.2817 28.43V27.748L93.0437 25.9H93.8797V33.732C93.8797 34.5387 94.0044 35.1033 94.2537 35.426C94.5031 35.7487 94.9504 35.91 95.5957 35.91C96.0504 35.91 96.4977 35.8293 96.9377 35.668C97.3777 35.492 97.8984 35.1547 98.4997 34.656V29.574L96.5417 28.43V27.748L100.304 25.9H101.14V36.35L103.12 37.12L102.68 38ZM125.785 38H121.605V30.586C121.605 29.7793 121.48 29.2147 121.231 28.892C120.981 28.5693 120.534 28.408 119.889 28.408C119.434 28.408 118.987 28.496 118.547 28.672C118.107 28.8333 117.586 29.1633 116.985 29.662V36.35L118.965 37.12L118.525 38H114.345V30.586C114.345 29.7793 114.22 29.2147 113.971 28.892C113.721 28.5693 113.274 28.408 112.629 28.408C112.174 28.408 111.727 28.496 111.287 28.672C110.847 28.8333 110.326 29.1633 109.725 29.662V36.35L111.705 37.12L111.265 38H105.127V37.318L107.085 35.778V29.552L105.127 28.408V27.726L108.889 25.878L109.593 28.694L112.519 26.252C112.827 26.1347 113.23 26.076 113.729 26.076C114.579 26.076 115.283 26.3107 115.841 26.78C116.398 27.2347 116.75 27.8653 116.897 28.672L119.757 26.274C120.065 26.1567 120.468 26.098 120.967 26.098C121.964 26.098 122.756 26.406 123.343 27.022C123.929 27.6233 124.223 28.4447 124.223 29.486V36.35L126.225 37.12L125.785 38ZM148.644 38H144.464V30.586C144.464 29.7793 144.339 29.2147 144.09 28.892C143.841 28.5693 143.393 28.408 142.748 28.408C142.293 28.408 141.846 28.496 141.406 28.672C140.966 28.8333 140.445 29.1633 139.844 29.662V36.35L141.824 37.12L141.384 38H137.204V30.586C137.204 29.7793 137.079 29.2147 136.83 28.892C136.581 28.5693 136.133 28.408 135.488 28.408C135.033 28.408 134.586 28.496 134.146 28.672C133.706 28.8333 133.185 29.1633 132.584 29.662V36.35L134.564 37.12L134.124 38H127.986V37.318L129.944 35.778V29.552L127.986 28.408V27.726L131.748 25.878L132.452 28.694L135.378 26.252C135.686 26.1347 136.089 26.076 136.588 26.076C137.439 26.076 138.143 26.3107 138.7 26.78C139.257 27.2347 139.609 27.8653 139.756 28.672L142.616 26.274C142.924 26.1567 143.327 26.098 143.826 26.098C144.823 26.098 145.615 26.406 146.202 27.022C146.789 27.6233 147.082 28.4447 147.082 29.486V36.35L149.084 37.12L148.644 38ZM162.439 27L156.873 38L152.297 43.808L151.461 43.148C152.297 42.2533 152.928 41.4687 153.353 40.794C153.793 40.1193 154.101 39.4373 154.277 38.748C154.453 38.0733 154.541 37.2667 154.541 36.328L151.769 29.618L149.723 28.43V27.748L153.485 25.9L154.321 29.222L157.005 35.778L160.107 29.332L157.181 27.198L157.621 26.318H162.439V27ZM182.072 38H177.892V36.086L175.406 38.044C175.113 38.1613 174.746 38.22 174.306 38.22C173.045 38.22 172.128 37.9047 171.556 37.274C170.999 36.6433 170.72 35.888 170.72 35.008C170.72 34.48 170.911 33.9593 171.292 33.446C171.674 32.9327 172.216 32.4487 172.92 31.994H177.892V30.586C177.892 29.6327 177.636 28.958 177.122 28.562C176.624 28.166 175.934 27.968 175.054 27.968C174.145 27.968 173.03 28.518 171.71 29.618L171.05 28.782L174.218 26.274C174.805 26.1567 175.509 26.098 176.33 26.098C177.665 26.098 178.699 26.428 179.432 27.088C180.166 27.7333 180.532 28.6793 180.532 29.926V36.35L182.512 37.12L182.072 38ZM175.01 36.35C175.905 36.35 176.866 35.9393 177.892 35.118V32.896H173.998C173.808 33.1307 173.668 33.3653 173.58 33.6C173.507 33.8347 173.47 34.0913 173.47 34.37C173.47 34.9127 173.61 35.382 173.888 35.778C174.167 36.1593 174.541 36.35 175.01 36.35ZM191.072 38.242C190.28 38.242 189.547 38 188.872 37.516V41.784L191.952 42.73L191.512 43.61H184.274V42.928L186.232 41.388V29.574L184.274 28.43V27.748L188.036 25.9L188.762 28.76L191.908 26.274C192.378 26.1567 192.913 26.098 193.514 26.098C194.306 26.098 195.018 26.3547 195.648 26.868C196.294 27.3667 196.792 28.0487 197.144 28.914C197.511 29.7793 197.694 30.7327 197.694 31.774C197.694 32.9033 197.35 33.9667 196.66 34.964C195.971 35.9467 195.106 36.7387 194.064 37.34C193.038 37.9267 192.04 38.22 191.072 38.22V38.242ZM192.392 28.21C191.835 28.21 191.292 28.32 190.764 28.54C190.236 28.76 189.606 29.1927 188.872 29.838V33.556C188.872 34.3627 189.173 35.0373 189.774 35.58C190.376 36.1227 191.234 36.394 192.348 36.394C194.006 36.394 194.834 35.2133 194.834 32.852C194.834 31.5467 194.622 30.4467 194.196 29.552C193.771 28.6573 193.17 28.21 192.392 28.21ZM206.59 38H200.452V37.318L202.41 35.778V29.354L200.452 27.99V27.308L204.214 25.9H205.05V36.35L207.03 37.12L206.59 38ZM203.642 19.3C204.082 19.3 204.442 19.4613 204.72 19.784C205.014 20.1067 205.16 20.51 205.16 20.994C205.16 21.3313 205.058 21.654 204.852 21.962C204.647 22.2553 204.39 22.49 204.082 22.666C203.774 22.842 203.474 22.93 203.18 22.93C202.74 22.93 202.374 22.7687 202.08 22.446C201.802 22.1233 201.662 21.72 201.662 21.236C201.662 20.8987 201.765 20.5833 201.97 20.29C202.176 19.982 202.432 19.74 202.74 19.564C203.048 19.388 203.349 19.3 203.642 19.3Z" fill="#14242A"/>
</svg>
